<svg xmlns="http://www.w3.org/2000/svg" viewBox="0 0 24 24" width="24" height="24">
  <path fill="#4285F4" d="M21.35 11.335H12v3.96h5.31c-.52 2.518-2.77 4.346-5.31 4.346-3.09 0-5.59-2.5-5.59-5.59s2.5-5.59 5.59-5.59c1.49 0 2.86.56 3.9 1.501l2.98-2.98c-1.96-1.82-4.54-2.92-7.27-2.92-5.52 0-10 4.48-10 10s4.48 10 10 10c5.28 0 9.459-3.858 9.459-9.505 0-.877-.09-1.767-.269-2.583l-.001-.001z"/>
  <path fill="#34A853" d="M12 21.95c-5.52 0-10-4.48-10-10s4.48-10 10-10c2.73 0 5.31 1.1 7.27 2.92l-2.98 2.98C15.26 6.85 13.89 6.29 12 6.29c-3.09 0-5.59 2.5-5.59 5.59s2.5 5.59 5.59 5.59c2.54 0 4.79-1.828 5.31-4.346H12v-3.96h9.35c.18.816.27 1.706.27 2.583 0 5.647-4.179 9.505-9.459 9.505l-.161-.002z"/>
  <path fill="#FBBC05" d="M5.85 14.09c-.22-.66-.34-1.36-.34-2.09s.12-1.43.34-2.09V6.29H2.45C1.53 8.01 1 9.95 1 12s.53 3.99 1.45 5.71l3.4-3.62z"/>
  <path fill="#EA4335" d="M12 5.84c1.73 0 3.28.6 4.51 1.78l2.58-2.58C17.27 3.22 14.76 2 12 2 7.27 2 3.31 4.67 1.67 8.39l3.49 2.71c.86-2.53 3.25-4.34 6.02-4.34l-.18-.92z"/>
</svg> 