<svg width="140" height="40" viewBox="0 0 180 60" fill="none" xmlns="http://www.w3.org/2000/svg">
  <!-- Salt -->
  <g transform="translate(10, 5) scale(0.5)">
    <path d="M40,85 L5,85 C5,85 0,85 0,75 L0,40 C0,30 8,30 20,30 C32,30 40,30 40,40 L40,75 C40,85 40,85 40,85 Z" fill="#BFBFBF" stroke="#1A2E35" stroke-width="4"/>
    <path d="M30,25 C30,15 30,7 20,7 C10,7 10,15 10,25" fill="#BFBFBF" stroke="#1A2E35" stroke-width="4"/>
    <circle cx="15" cy="17" r="3" fill="#1A2E35" />
    <circle cx="25" cy="17" r="3" fill="#1A2E35" />
  </g>

  <!-- Pepper -->
  <g transform="translate(70, 5) scale(0.5)">
    <path d="M10,85 L10,65 C10,65 5,55 5,45 C5,35 15,25 20,25 C25,25 35,35 35,45 C35,55 30,65 30,65 L30,85" fill="#343C3D" stroke="#1A2E35" stroke-width="4"/>
    <path d="M15,25 C15,20 20,10 20,10 C20,10 25,20 25,25" fill="#343C3D" stroke="#1A2E35" stroke-width="4"/>
    <rect x="10" y="70" width="20" height="15" rx="2" fill="#343C3D" stroke="#1A2E35" stroke-width="4"/>
  </g>

  <!-- Ketchup -->
  <g transform="translate(130, 5) scale(0.5)">
    <path d="M35,85 L5,85 C5,85 0,85 0,75 L5,45 C5,35 10,35 20,35 C30,35 35,35 35,45 L40,75 C40,85 35,85 35,85 Z" fill="#E73C36" stroke="#1A2E35" stroke-width="4"/>
    <path d="M30,30 L25,10 C25,7 20,5 20,5 C20,5 15,7 15,10 L10,30" fill="#E73C36" stroke="#1A2E35" stroke-width="4"/>
    <rect x="10" y="30" width="20" height="10" rx="2" fill="#E73C36" stroke="#1A2E35" stroke-width="4"/>
  </g>
</svg> 